<?xml version="1.0" encoding="utf-8"?>
<!-- Generator: Adobe Illustrator 25.4.1, SVG Export Plug-In . SVG Version: 6.00 Build 0)  -->
<svg version="1.1" id="Layer_1" xmlns="http://www.w3.org/2000/svg" xmlns:xlink="http://www.w3.org/1999/xlink" x="0px" y="0px"
	 viewBox="0 0 1364.1 386.9" style="enable-background:new 0 0 1364.1 386.9;" xml:space="preserve">
<g>
	<path d="M287.2,217.1c-18.4,21.4-38.1,41.4-59.1,60.2c-21,18.8-42.2,32.6-63.5,41.4c-21.4,8.8-42.9,10.9-64.6,6.1
		C78.2,320,57.1,305.1,36.5,280C15.8,254.3,4,224.4,1.1,190.6c-3-33.9-0.7-66.6,6.6-98.3C12.2,74.6,18.2,58.5,26,44.2
		c7.7-14.4,17.8-25.6,30.4-33.7C64.4,3.9,74.2,0.4,85.6,0c11.4-0.4,21.2,2.4,29.3,8.3c8.1,5.9,13.3,12.9,15.5,21
		c2.2,8.1,1.5,18.8-2.2,32c-13.3,42.7-16.6,85.4-9.9,128.1c4.4,22.8,12.5,39.4,24.3,49.7c11.8,10.3,26.5,8.1,44.2-6.6
		c22.8-19.9,43.1-44.6,60.8-74c17.7-29.4,32.4-57.4,44.2-84c9.6-24.3,23.8-39,42.5-44.2c18.8-5.1,35.9,2.2,51.4,22.1
		c11,14.7,17.5,31.9,19.3,51.4c1.8,19.5,3.5,37.7,5,54.7c1.5,25,2.8,48.8,3.9,71.3c1.1,22.5,3.9,45.1,8.3,67.9
		c1.5,8.8,1.3,17.3-0.6,25.4c-1.8,8.1-6.8,15.5-14.9,22.1c-8.8,5.9-17.9,9-27.1,9.4c-9.2,0.4-17.9-1.3-26-5
		c-12.5-5.1-22.1-12.3-28.7-21.5c-6.6-9.2-11.8-19-15.5-29.3c-2.2-5.1-4.2-11.6-6.1-19.3c-1.8-7.7-3.7-15.5-5.5-23.2
		c-1.8-7.7-3.7-15.1-5.5-22.1C290.3,227.2,288.7,221.5,287.2,217.1z"/>
	<path d="M633.3,258.4c0.5-3.2,1.6-8.1,3.2-14.8c1.6-6.6,3.6-13.6,6-20.7c2.4-7.2,4.9-13.8,7.6-19.9c2.7-6.1,5.3-10,8-11.6
		c14.9-10.6,29-12.1,42.3-4.4c13.3,7.7,21.5,20.6,24.7,38.7c1.1,5.9,1.9,11.8,2.4,17.9c0.5,6.1,2.1,12.1,4.8,17.9
		c1.6,5.9,3.6,11.8,6,17.9c2.4,6.1,5.4,11.6,9.2,16.4c5.8,9,12.5,13.4,19.9,13.2c7.4-0.3,14.9-4.4,22.3-12.4
		c7.4-8,12.2-17.1,14.4-27.5c2.1-10.4,2.1-20.9,0-31.5c-3.7-16-8-31.6-12.8-47.1c-4.8-15.4-12.2-30-22.3-43.9
		c-9.6-13.3-10.1-25.8-1.6-37.5c4.3-6.4,9.4-10.4,15.6-12c6.1-1.6,12.4-1.6,18.7,0c6.4,1.6,12.5,4.3,18.3,8
		c5.8,3.7,10.6,8,14.4,12.8c17.5,23.9,31.2,49.3,41.1,76.2c9.8,26.9,11.8,56,6,87.3c-4.8,27.1-16.5,50.4-35.1,69.8
		c-18.6,19.4-40.7,31.2-66.2,35.5c-12.8,2.1-24.7,2-35.9-0.4c-11.2-2.4-21.5-6.1-31.1-11.2c-9.6-5-18.7-11.2-27.5-18.3
		c-8.8-7.2-17.4-14.5-25.9-21.9c-3.7,3.7-7.2,7.5-10.4,11.2c-3.2,3.7-6.9,7.7-11.2,12c-18.6,15.4-38.4,23-59.4,22.7
		c-21-0.3-40-9.4-57-27.5c-12.8-12.8-22.2-27.8-28.3-45.1c-6.1-17.3-9.4-35-10-53c-0.5-18.1,1.3-35.9,5.6-53.4
		c4.3-17.5,10.6-33.2,19.1-47.1c8-13.8,18.1-24.6,30.3-32.3c12.2-7.7,26-7,41.5,2c7.4,5.9,12,12.2,13.6,19.1
		c1.6,6.9,1.9,14.6,0.8,23.1c-2.1,13.8-4.1,27.3-6,40.3c-1.9,13-3.9,26.5-6,40.3c-1.6,20.2-0.4,34.2,3.6,41.9
		c4,7.7,9.2,10.9,15.6,9.6c6.4-1.3,12.6-5.8,18.7-13.6C626.2,277.5,630.6,268.5,633.3,258.4z"/>
	<path d="M1229.3,217.1c-18.4,21.4-38.1,41.4-59.1,60.2c-21,18.8-42.2,32.6-63.5,41.4c-21.4,8.8-42.9,10.9-64.6,6.1
		c-21.7-4.8-42.9-19.7-63.5-44.7c-20.6-25.8-32.4-55.6-35.4-89.5c-3-33.9-0.7-66.6,6.6-98.3c4.4-17.7,10.5-33.7,18.2-48.1
		c7.7-14.4,17.8-25.6,30.4-33.7c8.1-6.6,17.8-10.1,29.3-10.5c11.4-0.4,21.2,2.4,29.3,8.3c8.1,5.9,13.3,12.9,15.5,21
		c2.2,8.1,1.5,18.8-2.2,32c-13.3,42.7-16.6,85.4-9.9,128.1c4.4,22.8,12.5,39.4,24.3,49.7c11.8,10.3,26.5,8.1,44.2-6.6
		c22.8-19.9,43.1-44.6,60.8-74c17.7-29.4,32.4-57.4,44.2-84c9.6-24.3,23.8-39,42.5-44.2c18.8-5.1,35.9,2.2,51.4,22.1
		c11,14.7,17.5,31.9,19.3,51.4c1.8,19.5,3.5,37.7,5,54.7c1.5,25,2.8,48.8,3.9,71.3c1.1,22.5,3.9,45.1,8.3,67.9
		c1.5,8.8,1.3,17.3-0.6,25.4c-1.8,8.1-6.8,15.5-14.9,22.1c-8.8,5.9-17.9,9-27.1,9.4c-9.2,0.4-17.9-1.3-26-5
		c-12.5-5.1-22.1-12.3-28.7-21.5c-6.6-9.2-11.8-19-15.5-29.3c-2.2-5.1-4.2-11.6-6.1-19.3c-1.8-7.7-3.7-15.5-5.5-23.2
		c-1.8-7.7-3.7-15.1-5.5-22.1C1232.4,227.2,1230.8,221.5,1229.3,217.1z"/>
</g>
</svg>
