<?xml version="1.0" encoding="utf-8"?>
<!-- Generator: Adobe Illustrator 25.4.1, SVG Export Plug-In . SVG Version: 6.00 Build 0)  -->
<svg version="1.1" id="Layer_1" xmlns="http://www.w3.org/2000/svg" xmlns:xlink="http://www.w3.org/1999/xlink" x="0px" y="0px"
	 viewBox="0 0 64 64" style="enable-background:new 0 0 64 64;" xml:space="preserve">
<style type="text/css">
	.st0{fill:url(#SVGID_1_);}
	.st1{fill:none;stroke:#000000;stroke-width:2;stroke-miterlimit:10;}
	.st2{fill:none;stroke:#000000;stroke-miterlimit:10;}
</style>
<linearGradient id="SVGID_1_" gradientUnits="userSpaceOnUse" x1="0" y1="32" x2="64" y2="32">
	<stop  offset="0" style="stop-color:#FCBFFF"/>
	<stop  offset="0.1735" style="stop-color:#E8A3FF"/>
	<stop  offset="0.5484" style="stop-color:#B35DFF"/>
	<stop  offset="1" style="stop-color:#6F00FF"/>
</linearGradient>
<circle class="st0" cx="32" cy="32" r="32"/>
<path d="M10.6,26.1c-1.4,4.1-0.4,8.2,2.3,10c1.4,1,3,1.2,4,1.1c0.9-0.1,2.9-0.4,4.6-2c2.2-2.2,2.8-5.8,1.4-9.2
	c-0.5-0.2-1.4-0.4-1.9,0c-1.2,0.9,0.8,3.7-0.4,6.3c-0.6,1.3-2,2.5-3.7,2.5c-1.8,0-3-1.3-3.3-1.5c-0.3-0.6-0.6-1.4-0.7-2.4
	c-0.2-1.4-0.1-2.5,0.1-3.3c0-0.1,0.4-1.1-0.1-1.5C12.9,26.1,12.7,26,12,26C11.5,26,11,26,10.6,26.1z"/>
<path d="M40.9,26.1c-1.4,4.1-0.4,8.2,2.3,10c1.4,1,3,1.2,4,1.1c0.9-0.1,2.9-0.4,4.6-2c2.2-2.2,2.8-5.8,1.4-9.2
	c-0.5-0.2-1.4-0.4-1.9,0c-1.2,0.9,0.8,3.7-0.4,6.3c-0.6,1.3-2,2.5-3.7,2.5c-1.8,0-3-1.3-3.3-1.5c-0.3-0.6-0.6-1.4-0.7-2.4
	c-0.2-1.4-0.1-2.5,0.1-3.3c0-0.1,0.4-1.1-0.1-1.5c-0.1-0.1-0.2-0.2-0.9-0.2C41.7,26,41.2,26,40.9,26.1z"/>
<line class="st1" x1="25" y1="38.3" x2="29.7" y2="43"/>
<line class="st1" x1="28.1" y1="43" x2="32.8" y2="38.3"/>
<line class="st1" x1="30.9" y1="38.3" x2="35.6" y2="43"/>
<line class="st1" x1="34" y1="43" x2="38.7" y2="38.3"/>
<ellipse class="st2" cx="7.9" cy="43.6" rx="4.1" ry="2.5"/>
<ellipse class="st2" cx="56.3" cy="43.6" rx="4.1" ry="2.5"/>
<polygon points="13.5,10.7 14,11.7 15.1,11.9 14.3,12.7 14.5,13.9 13.5,13.4 12.4,13.9 12.6,12.7 11.8,11.9 12.9,11.7 "/>
<polygon points="16.8,8.3 17.2,9.2 18.2,9.4 17.5,10 17.7,11 16.8,10.6 15.9,11 16.1,10 15.4,9.4 16.3,9.2 "/>
</svg>
